<svg width="1078" height="463" xmlns="http://www.w3.org/2000/svg" xmlns:xlink="http://www.w3.org/1999/xlink" xml:space="preserve" overflow="hidden"><g transform="translate(-411 -573)"><path d="M479.5 672.668C479.5 644.961 501.961 622.5 529.668 622.5L1414.33 622.5C1442.04 622.5 1464.5 644.961 1464.5 672.668L1464.5 873.332C1464.5 901.039 1442.04 923.5 1414.33 923.5L529.668 923.5C501.961 923.5 479.5 901.039 479.5 873.332Z" stroke="#000000" stroke-width="6.875" stroke-miterlimit="8" fill="#FFFFFF" fill-rule="evenodd"/><text font-family="Petrov Sans,Petrov Sans_MSFontService,sans-serif" font-weight="700" font-size="220" transform="matrix(1 0 0 1 549.77 854)">AP4</text><text font-family="Petrov Sans,Petrov Sans_MSFontService,sans-serif" font-weight="700" font-size="220" transform="matrix(1 0 0 1 1116.39 854)">ed</text><path d="M1001 692.167C1001 689.313 1003.31 687 1006.17 687L1144.83 687C1147.69 687 1150 689.313 1150 692.167L1150 712.833C1150 715.687 1147.69 718 1144.83 718L1006.17 718C1003.31 718 1001 715.687 1001 712.833Z" fill="#5C9CEE" fill-rule="evenodd"/><path d="M1001 736C1001 733.239 1003.24 731 1006 731L1082 731C1084.76 731 1087 733.239 1087 736L1087 756C1087 758.761 1084.76 761 1082 761L1006 761C1003.24 761 1001 758.761 1001 756Z" fill="#71C285" fill-rule="evenodd"/><path d="M1001 781C1001 778.238 1003.24 776 1006 776L1040 776C1042.76 776 1045 778.238 1045 781L1045 801C1045 803.761 1042.76 806 1040 806L1006 806C1003.24 806 1001 803.761 1001 801Z" fill="#FFC107" fill-rule="evenodd"/><path d="M1003 824.333C1003 822.492 1004.49 821 1006.33 821L1019.67 821C1021.51 821 1023 822.492 1023 824.333L1023 847.667C1023 849.508 1021.51 851 1019.67 851L1006.33 851C1004.49 851 1003 849.508 1003 847.667Z" fill="#EF5350" fill-rule="evenodd"/></g></svg>